# xmcd CD database file
#
# Track frame offsets:
#	150
#	14172
#	30000
#	43329
#	55929
#	69144
#	83076
#	95831
#
# Disc length: 1468 seconds
#
# Revision: 0
# Processed by: cddbd v1.5.2PL0 Copyright (c) Steve Scherf et al.
# Submitted via: CDex 1.70beta2
#
DISCID=6005ba08
DTITLE=Billie Holiday - DAISO Female Singers Collection 1 
DYEAR=2005
DGENRE=Jazz
TTITLE0=Strange Fruit
TTITLE1=Fine and Mellow LIVEver.
TTITLE2=Bille's Blues LIVEver.
TTITLE3=Dream Of Life
TTITLE4=East Of The Sun(West Of The Moon)
TTITLE5=One Never Knouws Does One
TTITLE6=Summertime
TTITLE7=This Year's Kisses
EXTD=YEAR: 2005
EXTT0=
EXTT1=
EXTT2=
EXTT3=
EXTT4=
EXTT5=
EXTT6=
EXTT7=
PLAYORDER=
